<svg xmlns="http://www.w3.org/2000/svg" xmlns:xlink="http://www.w3.org/1999/xlink" width="450" viewBox="0 0 450 374.999991" height="374.999991" preserveAspectRatio="xMidYMid meet"><defs><clipPath id="clip-0"><path d="M 159 211 L 303 211 L 303 354.75 L 159 354.75 Z M 159 211 " clip-rule="nonzero"></path></clipPath><clipPath id="clip-1"><path d="M 160 37.5 L 298 37.5 L 298 322 L 160 322 Z M 160 37.5 " clip-rule="nonzero"></path></clipPath></defs><rect x="-45" width="540" fill="rgb(100%, 100%, 100%)" y="-37.499999" height="449.999989" fill-opacity="1"></rect><rect x="-45" width="540" fill="rgb(100%, 100%, 100%)" y="-37.499999" height="449.999989" fill-opacity="1"></rect><rect x="-45" width="540" fill="rgb(100%, 100%, 100%)" y="-37.499999" height="449.999989" fill-opacity="1"></rect><g clip-path="url(#clip-0)"><path stroke-linecap="butt" transform="matrix(0.63375, 0, 0, 0.6345, 37.500003, 37.499998)" fill="none" stroke-linejoin="miter" d="M 234.572249 433.861587 L 375.147949 433.861587 L 375.147949 464.637544 L 234.572249 464.637544 Z M 262.389066 318.299375 C 260.10233 322.491899 258.117616 326.82602 256.441087 331.30174 C 256.237685 331.818879 256.040446 332.348331 255.837044 332.90241 C 250.018503 348.749042 244.230781 374.698364 256.921856 396.590603 C 276.762834 430.789532 274.019984 432.501017 274.019984 432.501017 L 326.349869 432.501017 C 326.349869 432.501017 372.861213 372.679057 340.002483 321.722346 C 340.002483 321.722346 336.470678 322.331832 335.262591 327.176936 C 335.262591 327.176936 332.827926 320.712692 327.582611 320.09705 C 327.582611 320.09705 319.90263 327.176936 322.318804 335.100252 C 322.318804 335.100252 318.891782 324.388077 302.921613 316.711018 C 302.921613 316.711018 288.5725 321.35296 284.529107 330.452153 C 284.529107 330.452153 280.52886 320.552625 275.030832 318.730324 C 272.70095 320.066268 270.629944 321.716189 268.799323 323.680088 C 266.974865 325.643987 265.483248 327.829517 264.318307 330.248991 Z M 256.817073 332.533024 C 256.817073 332.533024 256.360959 374.458263 270.580634 394.712894 C 270.580634 394.712894 297.337293 409.408275 299.747303 424.109813 C 299.747303 424.109813 302.397698 407.241215 330.109731 396.879955 C 330.109731 396.879955 333.727828 394.952995 334.208597 392.539677 C 334.208597 392.539677 342.887099 399.53953 339.269002 408.687974 M 336.908302 393.192258 C 336.908302 393.192258 328.581131 372.057258 347.571517 337.642855 " stroke="rgb(25.489807%, 28.239441%, 30.979919%)" stroke-width="3" stroke-opacity="1" stroke-miterlimit="10"></path></g><path stroke-linecap="butt" transform="matrix(0.63375, 0, 0, 0.6345, 37.500003, 37.499998)" fill="none" stroke-linejoin="miter" d="M 338.3013 132.997205 C 338.3013 132.997205 400.708848 100.940712 476.208113 137.817684 C 476.208113 137.817684 480.20836 144.349649 471.542186 143.48775 C 471.542186 143.48775 472.029119 148.492921 463.28898 146.067291 C 463.28898 146.067291 464.65116 151.367971 453.291445 150.512228 C 453.291445 150.512228 453.291445 157.770651 441.352342 154.809411 C 441.352342 154.809411 446.172362 162.030895 433.752489 161.150527 C 433.752489 161.150527 434.818811 167.153039 425.240408 165.576995 C 425.240408 165.576995 425.419155 173.032423 416.007173 170.188155 C 416.007173 170.188155 416.722163 177.471203 407.008158 174.811629 C 407.008158 174.811629 405.769253 181.552912 397.959834 178.708644 C 397.959834 178.708644 396.720929 185.092855 387.142526 182.968889 C 387.142526 182.968889 384.1408 190.239624 373.298836 183.683034 C 373.298836 183.683034 368.509635 192.899199 352.551794 179.767549 C 352.551794 179.767549 349.889072 185.092855 342.437148 178.708644 C 341.185915 173.697316 340.470925 168.612111 340.310669 163.453029 L 341.247552 153.879791 L 339.928519 145.507056 L 341.130442 142.410376 L 338.621812 135.589059 Z M 471.998301 143.537001 C 471.998301 143.537001 420.629954 119.791678 403.192823 120.037935 M 464.090263 146.319704 C 464.090263 146.319704 441.839275 138.020846 410.330397 139.479918 M 453.322264 150.512228 C 453.322264 150.512228 430.060428 132.307686 392.757664 142.361124 M 441.376997 155.498931 C 441.376997 155.498931 411.920634 134.837976 379.998788 145.162297 L 340.538726 159.999276 M 433.777144 161.150527 C 433.777144 161.150527 417.098149 145.266956 380.861707 145.00223 M 425.271226 165.576995 C 425.271226 165.576995 402.502487 147.280106 371.123047 147.828028 M 416.001009 170.188155 C 416.001009 170.188155 405.652142 155.591277 362.062396 151.090932 M 407.001994 174.811629 C 407.001994 174.811629 387.068561 156.502427 352.299082 154.458495 M 398.00298 178.708644 C 398.00298 178.708644 373.680986 158.712583 344.508154 158.060002 M 387.130198 182.999671 C 387.130198 182.999671 374.130937 165.460023 340.390797 162.000113 M 373.292673 183.683034 C 373.292673 183.683034 364.521716 171.271686 340.470925 167.097631 M 352.539466 179.767549 C 352.539466 179.767549 351.010867 174.048232 341.068805 172.459875 M 435.342726 140.181751 C 435.342726 140.181751 406.841738 120.83827 391.48794 120.308818 M 418.170634 138.999718 C 418.170634 138.999718 403.907813 121.817142 379.382417 121.336941 M 405.738434 139.70155 C 405.738434 139.70155 389.811411 122.580538 369.138333 123.159242 M 356.761607 126.077386 C 360.293412 126.089699 363.788234 126.434459 367.252238 127.117822 C 370.722406 127.795028 374.087791 128.792369 377.366884 130.115999 C 380.639813 131.43963 383.75865 133.05877 386.723394 134.973417 C 389.688137 136.888064 392.449479 139.067438 395.001254 141.511538 M 347.707119 128.84162 C 347.707119 128.84162 367.8871 126.280548 386.532319 143.321526 M 341.167424 131.488882 C 341.167424 131.488882 370.278619 136.149294 379.992624 145.162297 M 339.638824 138.451796 C 339.638824 138.451796 364.127238 141.228343 370.247801 148.191257 M 360.749526 151.349502 C 348.150906 145.346989 340.249032 147.18776 340.249032 147.18776 M 341.222897 152.999423 C 341.222897 152.999423 349.667178 152.451501 353.827681 154.532372 " stroke="rgb(25.489807%, 28.239441%, 30.979919%)" stroke-width="3" stroke-opacity="1" stroke-miterlimit="10"></path><path stroke-linecap="butt" transform="matrix(0.63375, 0, 0, 0.6345, 37.500003, 37.499998)" fill="none" stroke-linejoin="miter" d="M 279.857016 137.349796 C 279.857016 137.349796 211.680236 95.239864 115.859224 136.549461 C 115.859224 136.549461 113.282794 143.456968 122.79956 141.659292 C 122.79956 141.659292 124.081611 149.120877 132.569038 145.008386 C 132.569038 145.008386 134.757154 153.498093 142.862431 148.222039 C 142.862431 148.222039 145.691573 156.44702 155.208339 152.340686 C 155.208339 152.340686 153.408536 160.337879 164.977817 157.481299 C 164.977817 157.481299 165.63117 164.302615 174.241871 161.482974 C 174.241871 161.482974 175.141772 169.067686 184.787976 166.241888 C 184.787976 166.241888 186.852818 174.091327 195.722395 170.612948 C 195.722395 170.612948 196.622296 178.197661 206.139062 174.473026 C 206.139062 174.473026 208.579891 183.092017 217.461795 178.326946 C 217.461795 178.326946 221.462041 187.198351 231.989656 179.23194 C 231.989656 179.23194 240.101096 188.4912 254.111205 174.990165 C 254.111205 174.990165 256.817073 181.41747 274.439116 169.578669 L 283.801789 168.002625 L 282.562884 156.108416 C 282.562884 156.108416 281.798584 143.740163 279.857016 137.349796 Z M 122.768741 141.659292 C 122.768741 141.659292 149.852076 132.898703 173.452916 134.407026 L 281.638327 160.467164 M 132.538219 145.00223 C 132.538219 145.00223 165.79759 134.246959 185.909771 136.180076 M 142.819285 148.049659 C 142.819285 148.049659 181.958834 136.481741 199.519239 139.110533 M 155.17752 152.340686 C 155.17752 152.340686 185.422838 138.630332 209.01135 141.240655 M 165.002472 157.481299 C 165.002472 157.481299 195.999762 141.88708 220.919635 144.047984 M 174.211052 161.470661 C 174.211052 161.470661 199.661005 145.790252 232.901884 147.261637 M 184.757157 166.229575 C 184.757157 166.229575 217.640542 145.821034 242.942566 149.69958 M 195.691576 170.600636 C 195.691576 170.600636 218.072002 151.367971 254.4009 152.771635 M 206.108244 174.460713 C 206.108244 174.460713 237.536993 154.93254 263.301295 155.191109 M 217.430976 178.32079 C 217.430976 178.32079 237.728068 162.437219 271.431226 157.727556 M 232.001983 179.219628 C 238.9115 173.912791 246.394242 169.597139 254.450209 166.27267 C 262.506176 162.954359 270.858001 160.744203 279.499521 159.642203 M 254.271462 174.651562 C 254.271462 174.651562 269.267765 161.458348 280.8617 160.651856 M 147.127717 135.57059 C 147.127717 135.57059 186.489159 117.56921 197.269486 119.009813 M 175.801289 134.591719 C 175.801289 134.591719 205.319289 117.31064 218.657554 119.502327 M 191.272197 136.838813 C 191.272197 136.838813 210.650897 121.429287 235.268748 121.909488 M 203.630433 139.52917 C 203.630433 139.52917 222.626982 124.058079 246.628463 124.439778 M 216.000996 142.502722 C 216.000996 142.502722 229.419389 126.379051 254.437882 127.019319 M 226.997052 145.728688 C 226.997052 145.728688 237.882161 128.367575 265.698977 130.571575 M 240.002477 148.689927 C 240.002477 148.689927 248.249519 132.049116 271.468208 133.077239 M 248.909035 151.269468 C 248.909035 151.269468 255.097399 136.567931 276.510122 135.792221 M 258.062142 153.602752 C 258.062142 153.602752 261.421364 143.66013 280.510369 139.917024 M 266.321512 155.788282 C 267.172104 154.563154 268.152133 153.442685 269.261601 152.439188 C 270.371068 151.435692 271.585319 150.567636 272.892025 149.841178 C 274.198731 149.11472 275.573238 148.542173 277.009382 148.129692 C 278.45169 147.717212 279.912489 147.477112 281.41027 147.397078 M 273.668652 157.592114 C 273.668652 157.592114 278.66742 152.433032 282.193061 153.079456 M 292.720675 194.530651 C 301.818309 195.090885 313.22117 194.290551 319.970431 188.152597 L 321.727087 186.638117 C 321.727087 186.638117 325.48695 190.639792 324.112443 194.641467 C 324.112443 194.641467 327.878469 199.160281 326.621072 201.290403 C 326.621072 201.290403 330.14055 203.168112 329.7584 206.178603 L 329.259139 207.810055 L 330.25766 213.461651 L 331.391782 217.728052 L 330.892522 222.727067 L 331.200707 230.102462 L 330.498045 235.452393 L 329.752236 242.950916 L 328.377729 244.951754 L 328.630441 252.567249 L 328.007906 254.13098 L 327.662739 258.311191 L 326.15263 259.819515 L 326.15263 263.88891 L 324.759632 264.590742 C 324.759632 264.590742 324.987689 268.770953 324.056969 270.390093 L 323.058449 271.898416 C 323.058449 271.898416 323.989169 275.149007 322.590007 276.201756 L 321.431229 276.780459 C 321.856525 277.611576 321.893508 278.461163 321.54834 279.329218 C 321.54834 279.329218 322.553024 281.767162 319.551298 282.930726 C 318.072008 282.622905 316.592718 282.598279 315.107265 282.856849 C 313.627975 283.121575 312.24114 283.644871 310.959089 284.439049 C 310.959089 284.439049 305.041929 290.601629 301.201938 291.642064 C 301.201938 291.642064 294.471169 292.571684 291.802283 293.642901 C 291.802283 293.642901 283.900408 294.098477 282.3903 297.940085 L 281.780093 298.537258 M 283.247055 326.118032 L 281.79242 315.202694 L 280.57817 303.308485 C 280.57817 303.308485 280.947992 300.999827 281.311651 298.210967 L 281.188377 282.801441 L 280.818554 281.21924 L 279.721414 271.467467 L 277.718209 268.340004 L 277.896956 263.002385 L 274.587045 256.002533 L 274.402134 251.397528 L 272.559185 241.84276 L 273.8474 234.479678 L 272.20169 222.48081 C 272.20169 222.48081 271.141532 211.910233 276.818307 197.208695 " stroke="rgb(25.489807%, 28.239441%, 30.979919%)" stroke-width="3" stroke-opacity="1" stroke-miterlimit="10"></path><g clip-path="url(#clip-1)"><path stroke-linecap="butt" transform="matrix(0.63375, 0, 0, 0.6345, 37.500003, 37.499998)" fill="none" stroke-linejoin="miter" d="M 319.63759 283.897284 L 320.777876 297.232096 C 320.777876 297.232096 321.338774 310.702349 319.501989 313.10951 C 319.501989 313.10951 317.94257 322.319519 318.219937 325.299227 L 318.078172 327.42935 C 318.078172 327.42935 311.698734 318.921173 305.461061 316.230817 L 304.191337 314.531644 C 304.191337 314.531644 304.900163 292.128421 305.60899 289.72126 C 305.60899 289.72126 316.518754 277.51923 319.63759 283.897284 Z M 296.998289 292.128421 C 296.998289 292.128421 295.580636 295.668365 296.289463 298.648073 L 296.431228 318.348626 M 272.491384 217.678801 C 273.237193 216.18279 274.161749 214.797595 275.265053 213.535528 C 276.362193 212.273461 277.607262 211.165305 278.987933 210.223373 C 280.374767 209.275284 281.854057 208.518044 283.431967 207.951653 C 285.009876 207.385262 286.630931 207.022033 288.301296 206.868122 C 288.301296 206.868122 310.731032 205.421363 313.147205 200.582415 C 313.147205 200.582415 324.599376 198.932493 324.149425 194.672249 M 275.000013 255.780901 C 275.000013 255.780901 298.822747 229.40063 306.422599 229.40063 C 306.422599 229.40063 323.237196 212.347339 329.838528 219.888956 L 331.169889 221.508096 M 273.872055 245.462737 C 273.872055 245.462737 285.139314 228.5572 296.788723 224.09995 L 303.790696 220.596945 L 310.009878 216.127382 C 310.009878 216.127382 316.007166 206.227854 320.691584 204.288581 L 326.627236 201.290403 M 329.7584 206.209385 C 329.7584 206.209385 310.76185 222.930229 301.842964 225.072664 C 301.842964 225.072664 291.549571 230.120931 287.839018 241.190179 L 286.107016 244.422301 M 281.490398 284.328234 C 281.490398 284.328234 281.687637 279.809419 291.130439 277.839364 C 300.567076 275.869309 303.729059 270.950327 305.128221 264.461457 L 316.352334 253.841628 C 320.334089 252.210176 324.432956 251.803852 328.66126 252.610344 M 331.200707 230.151713 C 331.200707 230.151713 326.547108 221.151023 318.090499 228.261691 C 318.090499 228.261691 307.08828 240.660727 302.940104 245.770558 C 302.940104 245.770558 286.61244 267.207222 279.721414 268.592417 L 277.718209 268.340004 M 330.411753 233.328427 C 330.411753 233.328427 323.822748 232.817444 317.560421 240.432939 L 305.220676 252.431807 L 296.757904 260.552129 L 285.601592 269.552819 C 285.601592 269.552819 281.79242 271.430528 279.721414 271.5475 M 328.377729 245.001005 C 328.377729 245.001005 311.982264 248.719484 305.719937 255.657773 L 293.207608 270.537847 C 293.207608 270.537847 283.740152 277.980962 281.878712 278.541196 L 280.52886 279.039867 M 324.759632 264.627681 C 324.759632 264.627681 317.048833 264.781591 308.598388 274.422549 C 308.598388 274.422549 299.802776 284.057351 294.218456 285.922747 C 294.218456 285.922747 285.429008 286.920088 282.3903 291.999137 L 281.391779 294.369359 M 273.089264 230.447222 C 273.089264 230.447222 289.151888 214.052668 301.497796 209.989429 C 301.497796 209.989429 312.148685 205.261296 313.159533 201.992235 L 313.159533 200.527007 M 304.000262 229.609948 C 304.000262 229.609948 295.679255 251.699193 283.881917 258.15728 L 277.120329 261.401715 M 334.399672 193.077735 C 334.399672 193.077735 334.603075 201.308872 336.969939 205.261296 C 336.969939 205.261296 341.179751 211.510065 340.920876 214.077293 L 340.853075 216.078131 C 340.853075 216.078131 339.472404 217.1986 340.390797 217.992778 C 340.390797 217.992778 339.269002 218.7808 340.662 219.771984 C 340.144248 220.079806 339.916191 220.535381 339.977828 221.13871 C 340.039465 221.735883 340.353815 222.136051 340.920876 222.339213 C 340.920876 222.339213 339.73128 224.34005 341.70983 224.567838 C 341.21057 225.620586 340.927039 226.728742 340.859239 227.892306 C 340.791438 229.05587 340.939367 230.188652 341.309189 231.290651 C 341.309189 231.290651 340.853075 234.288829 339.928519 234.910628 C 339.010126 235.532427 339.010126 235.760214 340.057957 236.092661 C 340.057957 236.092661 341.75914 236.837588 342.57275 234.688997 C 342.57275 234.688997 344.797848 231.518439 344.760866 230.317937 C 344.71772 229.117434 346.449722 237.05922 344.347898 241.528783 L 346.141537 243.27105 C 347.77492 242.402995 348.964515 241.122459 349.710324 239.429442 C 350.788973 236.788337 350.51777 230.939735 350.30204 229.240563 L 349.488431 224.112262 C 349.852089 223.761346 350.067819 223.336553 350.147947 222.837883 C 350.221912 222.345369 350.147947 221.871325 349.907563 221.428062 C 350.061655 221.243369 350.172602 221.034051 350.240403 220.800107 C 350.308204 220.566163 350.326695 220.332219 350.295876 220.092118 C 350.265058 219.852018 350.191093 219.62423 350.067819 219.414912 C 349.944545 219.21175 349.784289 219.033214 349.58705 218.891616 C 349.58705 218.891616 350.480788 216.287449 348.452928 215.887282 L 347.688628 215.320891 L 346.930492 211.89792 L 346.492868 197.768929 M 340.791438 217.752678 C 340.791438 217.752678 346.659288 216.896935 349.439121 218.232879 M 340.662 219.741202 C 340.662 219.741202 347.121566 219.057839 349.661014 220.960174 M 341.001004 222.99795 C 341.001004 222.99795 346.757908 220.670822 349.710324 223.810598 M 321.270973 176.28917 C 321.270973 176.28917 318.429503 182.088521 321.197009 186.89053 M 321.727087 186.638117 C 321.727087 186.638117 327.668902 184.581872 330.528863 186.687368 C 330.528863 186.687368 332.439613 196.248293 347.528371 197.541142 C 347.528371 197.541142 346.301793 188.737457 342.887099 188.060251 M 326.830638 174.577685 L 328.051052 175.070199 L 329.783054 177.520455 C 334.09765 185.148263 345.777878 188.897524 345.777878 188.897524 L 346.357267 187.032128 C 346.788726 184.29252 341.309189 177.520455 341.309189 177.520455 C 341.309189 177.520455 339.84839 161.587633 340.310669 163.453029 C 340.378469 163.767006 340.107266 164.210269 339.589515 164.727408 C 337.080885 167.300793 328.858498 171.727261 328.858498 171.727261 C 328.340747 172.663037 327.63192 173.43259 326.75051 174.029763 C 322.750263 176.867874 315.74829 177.440421 315.74829 177.440421 C 305.17753 179.970711 295.660764 192.240462 295.660764 192.240462 C 285.73103 203.020358 276.849126 197.097879 276.849126 197.097879 C 277.089511 195.577243 277.607262 194.148953 278.396217 192.825322 C 279.185171 191.495535 280.19602 190.368909 281.422598 189.426977 L 283.068308 186.952095 C 283.068308 186.952095 282.34099 182.457906 284.997549 180.900331 C 284.997549 180.900331 286.372056 171.819607 284.812637 169.172346 L 284.448979 168.168849 L 280.498041 133.05877 C 280.498041 133.05877 280.233002 127.918156 277.299077 126.360582 C 274.371315 124.803007 260.422843 110.729424 258.142271 106.579995 C 258.142271 106.579995 253.581126 99.198444 252.508641 99.198444 C 252.508641 99.198444 246.992122 95.110579 246.992122 90.197754 C 246.992122 85.291085 250.08014 59.557238 245.851836 57.451741 C 245.851836 57.451741 240.162733 56.152736 238.208837 53.062212 C 237.426046 51.615453 236.951441 50.076347 236.778857 48.438738 C 236.606273 46.80113 236.748039 45.20046 237.210317 43.618259 L 237.857506 42.159187 C 237.857506 42.159187 240.261352 41.291131 241.450948 44.160025 C 241.450948 44.160025 249.260367 51.830927 253.217468 49.57152 C 253.217468 49.57152 256.897202 49.848559 257.217714 55.80182 C 257.217714 55.80182 257.507409 76.179579 259.76949 80.427511 C 259.76949 80.427511 258.641531 93.731541 269.119836 96.852847 L 290.920872 114.688004 L 296.289463 120.628952 L 299.697993 122.931454 C 299.697993 122.931454 304.160518 131.217999 310.151643 130.928647 C 310.151643 130.928647 315.070282 133.391216 321.209336 125.547934 L 325.000017 125.547934 L 331.151398 128.780056 L 335.909781 130.780893 L 338.3013 132.997205 M 238.202674 53.080681 C 238.202674 53.080681 245.371067 77.220015 238.590987 88.88028 C 238.590987 88.88028 236.692565 105.422588 246.462043 92.137027 M 242.930238 59.32945 C 242.930238 59.32945 247.540692 83.727354 244.021215 88.88028 M 241.457112 44.221589 C 241.457112 44.221589 240.908542 52.668201 249.827428 53.511631 C 249.827428 53.511631 256.527379 58.510646 255.140545 69.69071 C 255.140545 69.69071 252.896955 84.761633 254.30228 90.062313 C 254.30228 90.062313 261.556965 102.898454 275.228071 106.807783 M 281.41027 189.439289 C 281.41027 189.439289 287.099373 193.028484 289.842223 187.06291 C 289.842223 187.06291 300.302037 169.868021 309.769493 165.139889 C 309.769493 165.139889 309.270233 151.940518 320.229306 146.707559 L 335.928272 130.817832 M 282.562884 156.139199 C 282.562884 156.139199 290.840744 137.251293 307.772451 148.948497 M 281.872548 143.721694 C 282.513574 142.835169 283.265547 142.05946 284.128466 141.382253 C 284.985221 140.705047 285.922105 140.163281 286.932953 139.744645 C 287.943801 139.326008 288.991632 139.055125 290.082608 138.931997 C 291.167421 138.802712 292.252233 138.827338 293.330882 138.999718 C 293.330882 138.999718 312.006919 144.478934 314.497057 140.489572 C 316.987196 136.50021 329.437887 135.490557 327.699721 128.539955 M 286.107016 176.350735 C 286.107016 176.350735 294.329403 161.16284 303.291435 155.43121 M 339.922355 145.507056 C 339.922355 145.507056 333.918903 143.832509 328.747551 151.12787 M 338.880688 148.997748 C 338.880688 148.997748 335.287246 149.951994 330.941832 161.088962 L 314.879207 174.319115 C 314.879207 174.319115 299.950705 177.71746 298.822747 182.070051 L 291.642026 189.24844 M 305.06042 173.001641 C 305.06042 173.001641 308.838773 168.082659 313.942324 167.140726 C 319.039711 166.198793 327.539465 168.267351 328.112689 153.541188 L 336.612444 139.929337 M 300.382165 124.199677 L 305.048092 123.122303 C 305.048092 123.122303 306.841731 122.402002 307.051298 118.628115 L 303.427037 116.270205 C 303.211307 115.987009 303.051051 115.673032 302.964759 115.322115 C 302.872303 114.971199 302.859976 114.620283 302.915449 114.269367 C 302.977086 113.912295 303.10036 113.579848 303.297599 113.278183 C 303.494838 112.976518 303.741386 112.730261 304.037244 112.5271 C 304.752234 110.593983 305.085075 108.593145 305.041929 106.530744 C 305.319295 104.76385 305.984976 103.157024 307.03897 101.710265 L 308.487442 100.257349 L 309.177777 98.201104 L 310.182461 96.440367 L 313.38759 93.540692 L 315.070282 92.771139 L 316.370825 92.241686 C 316.370825 92.241686 322.941338 92.469474 324.882906 94.088613 C 324.882906 94.088613 329.628962 97.092948 328.550313 100.89146 C 328.550313 100.89146 325.197255 108.888654 325.419149 110.16919 L 324.130934 113.222775 L 322.201693 115.999322 C 322.201693 115.999322 321.702433 117.716964 323.058449 117.292171 L 322.269494 121.589354 L 320.61762 123.817979 L 321.178517 125.609498 M 309.652383 98.127227 C 309.652383 98.127227 312.278122 98.010255 313.12255 99.130724 L 307.562885 104.997794 C 307.562885 104.997794 305.233004 107.152542 309.109976 107.090978 M 305.282313 109.842899 C 305.282313 109.842899 309.387343 109.362698 311.569296 112.022273 M 306.669148 118.517299 C 306.669148 118.517299 313.76974 123.522471 317.480292 119.422293 M 314.31831 100.528232 C 314.31831 100.528232 319.717719 98.890623 323.009139 102.639885 M 315.877728 102.178153 C 315.877728 102.178153 316.321515 105.36718 320.099868 103.477158 M 316.309188 92.278625 C 316.309188 92.278625 317.99188 85.408057 328.938626 90.277788 C 339.891536 95.147518 335.120826 102.282812 349.550068 105.502621 C 349.550068 105.502621 352.730541 111.849893 361.131676 109.49814 L 364.620335 111.880675 L 366.679014 115.371367 C 366.679014 115.371367 369.538974 118.862059 367.480296 120.59817 C 365.95786 121.706326 364.26284 122.131119 362.4014 121.872549 L 359.399674 124.248929 C 359.399674 124.248929 344.477336 129.001687 335.120826 125.997353 C 325.758153 122.999175 323.699474 124.599845 322.269494 121.570885 M 323.551545 92.869642 C 324.790451 92.943519 326.004701 93.177463 327.188133 93.565317 C 328.371565 93.959328 329.487196 94.494937 330.528863 95.172144 C 331.57053 95.855507 332.507414 96.661998 333.339514 97.585461 C 334.171615 98.515081 334.874278 99.530891 335.441339 100.639047 C 335.441339 100.639047 344.797848 118.24026 349.550068 113.801479 M 327.668902 104.597627 C 327.668902 104.597627 334.670875 104.597627 340.988677 115.069702 C 340.988677 115.069702 344.162986 125.541777 356.058944 118.06788 M 325.357512 110.212285 C 325.357512 110.212285 329.419396 106.887816 328.759879 109.892151 C 328.100362 112.890328 326.91693 114.380183 325.419149 114.891166 M 325.092472 120.548918 C 325.092472 120.548918 333.092966 118.880528 333.918903 114.380183 M 330.09124 122.051086 C 330.09124 122.051086 333.092966 117.05207 337.91915 119.052908 C 337.91915 119.052908 345.919643 128.872402 356.071271 122.709823 M 351.238924 122.211153 C 351.238924 122.211153 355.411754 122.211153 362.4014 117.05207 M 344.409535 115.217456 C 344.409535 115.217456 352.570285 120.548918 360.737199 112.391658 M 284.529107 330.101237 C 284.529107 330.101237 262.530831 380.097547 287.241138 404.612422 M 320.99977 332.582276 C 320.99977 332.582276 340.649673 358.328436 325.412985 397.631039 " stroke="rgb(25.489807%, 28.239441%, 30.979919%)" stroke-width="3" stroke-opacity="1" stroke-miterlimit="10"></path></g></svg>